PathFileType	4	(X/Y/Z)	/Users/visionmauri/Downloads/Videos/OAW05-top_Sports2D/OAW05-top_Sports2D_m_person00.trc
DataRate	CameraRate	NumFrames	NumMarkers	Units	OrigDataRate	OrigDataStartFrame	OrigNumFrames
28.0	28.0	7	22	m	28.0	249	1995
Frame#	Time	Hip			RHip			RKnee			RAnkle			RBigToe			RSmallToe			RHeel			LHip			LKnee			LAnkle			LBigToe			LSmallToe			LHeel			Neck			Head			Nose			RShoulder			RElbow			RWrist			LShoulder			LElbow			LWrist			
		X1	Y1	Z1	X2	Y2	Z2	X3	Y3	Z3	X4	Y4	Z4	X5	Y5	Z5	X6	Y6	Z6	X7	Y7	Z7	X8	Y8	Z8	X9	Y9	Z9	X10	Y10	Z10	X11	Y11	Z11	X12	Y12	Z12	X13	Y13	Z13	X14	Y14	Z14	X15	Y15	Z15	X16	Y16	Z16	X17	Y17	Z17	X18	Y18	Z18	X19	Y19	Z19	X20	Y20	Z20	X21	Y21	Z21	X22	Y22	Z22
436	15.578568153533766	3.896254981328247	0.025999959764871974	0.0301	3.896850882980182	0.13972181813417547	0.0301	3.2971641315260225	-0.06112458591477567	0.129	2.8379114714027556	-0.33499507551684427	0.023	2.608942019285266	-0.17443966857262047	0.2179	2.656332833137069	-0.16898946771119885	0.1804	2.773831182714953	-0.4118272935029859	-0.0119	3.9126671681840057	-0.07734062472170766	0.0301	3.2622012317499403	-0.198034616543697	0.129	2.8413613408539518	-0.5923206751358839	0.023	2.6196851842275777	-0.43778157031324866	0.2179	2.6312194340939774	-0.5217915374370862	0.1804	2.796969204122672	-0.6992356553682395	-0.0119	4.758088848277799	0.25589847801628784	0.0008	5.096550981249627	0.5832663255482374	0.0655	4.758539515140959	0.4791614924032485	0.1076	4.660689555414689	0.39644663873283337	-0.01275	4.223892107692601	0.2586951536272355	0.0702	3.8463645020231807	0.2340213076968589	0.1076	4.722809595479655	0.03721493224575518	-0.01275	4.216352550267733	-0.1978206492116513	0.0702	3.790022435359114	-0.21344715152589952	0.1076
437	15.614298814436367	3.8881169098956057	0.012286815778567809	0.0301	3.894947336669952	0.11689519541373893	0.0301	3.300689209272992	-0.06044497732687723	0.129	2.8317085909453446	-0.33594508423066627	0.023	2.6058659696049546	-0.17714674816988493	0.2179	2.661176899426746	-0.16796647820149244	0.1804	2.7678541377893495	-0.4152880654600705	-0.0119	3.9015094628359157	-0.08019084487218527	0.0301	3.2492168016561793	-0.20740579886582577	0.129	2.787116580465481	-0.591322687653712	0.023	2.607705988689225	-0.41894827528920203	0.2179	2.608376739583792	-0.4919297378905391	0.1804	2.7402244527481865	-0.7085192086127209	-0.0119	4.755367956175816	0.2539997223200506	0.0008	5.095053192582125	0.5924707779906127	0.0655	4.7632665728066454	0.4755802519768985	0.1076	4.664334381590022	0.371288778914094	-0.01275	4.222232857409949	0.2225376107421651	0.0702	3.8500302762457186	0.22835066892470374	0.1076	4.704023614980678	0.0500228252667814	-0.01275	4.198757260980815	-0.18162463888847788	0.0702	3.769361576241721	-0.200794527138698	0.1076
438	15.650029475338966	3.877336930078617	-0.010172160571408104	0.0301	3.886038865137537	0.08588030731009931	0.0301	3.3018400539455732	-0.0638664319603728	0.129	2.8269953834143124	-0.33753719788621755	0.023	2.6050023481473734	-0.18206057275866125	0.2179	2.6645875914039077	-0.16744684624542375	0.1804	2.7668938098519154	-0.4233937121707327	-0.0119	3.882985592684654	-0.08674815048034662	0.0301	3.2361518851324087	-0.21320511129550773	0.129	2.739610390925072	-0.5879096312323177	0.023	2.600159325809084	-0.40765835649224147	0.2179	2.5894629033948706	-0.47373180992701286	0.1804	2.6927619190675838	-0.7111236670652492	-0.0119	4.754464219546282	0.2524511271261768	0.0008	5.0923004383065	0.5944685128822614	0.0655	4.7739998641687755	0.4788395600608813	0.1076	4.671699238938779	0.3291116534463053	-0.01275	4.218009680988266	0.18312520835701157	0.0702	3.8599924719566414	0.21399197338473655	0.1076	4.684672949866939	0.06840257852226027	-0.01275	4.173151940433765	-0.16134463514121242	0.0702	3.7422997606368806	-0.18086805681134616	0.1076
439	15.685760136241568	3.8648240405492347	-0.04315983127173586	0.0301	3.865637307024534	0.05038286192850895	0.0301	3.30594932362585	-0.07456749239404485	0.129	2.823217627128236	-0.33913814496933586	0.023	2.6100976238359546	-0.18106738435489245	0.2179	2.666959107119865	-0.16951547620466476	0.1804	2.7683022809753752	-0.43093185334357387	-0.0119	3.8594984339093372	-0.09730913150157074	0.0301	3.22403980323292	-0.22406899414732767	0.129	2.7093074521011977	-0.5924704268918696	0.023	2.594963713063836	-0.4074882361204666	0.2179	2.5693025631969957	-0.4752615208593416	0.1804	2.6568001724451857	-0.7201836475775334	-0.0119	4.753235633842955	0.2528563453459556	0.0008	5.084600553431514	0.5846681452680528	0.0655	4.784532248333268	0.48386818676982946	0.1076	4.6779156239738295	0.27305233139345375	-0.01275	4.215445797563603	0.15077119054846852	0.0702	3.8758251578387086	0.19219163603879139	0.1076	4.660590390046624	0.09673501977708156	-0.01275	4.144138202234452	-0.13549032036814782	0.0702	3.710540152401999	-0.15602088570850947	0.1076
440	15.721490797144167	3.8556174251371176	-0.0814781577445632	0.0301	3.8432316666144497	0.017963681741140113	0.0301	3.3170728350170617	-0.08818852053163698	0.129	2.8200194175594357	-0.33964732706512096	0.023	2.625065006387453	-0.16917897261649917	0.2179	2.677214243662602	-0.17053316886018793	0.1804	2.767391698535525	-0.4296907105566299	-0.0119	3.842215648967961	-0.11426504005865447	0.0301	3.2178026405929727	-0.24458329359388456	0.129	2.696708669763636	-0.6024679387621272	0.023	2.5914727100993145	-0.40800205957421276	0.2179	2.556220668604847	-0.4809389375194874	0.1804	2.6368908817446908	-0.7315629366933015	-0.0119	4.750238820039014	0.25868534370504126	0.0008	5.070032098120849	0.579517432914866	0.0655	4.791703742934052	0.488826391423636	0.1076	4.683364553764699	0.21554611634243165	-0.01275	4.21468445270763	0.12418193202910315	0.0702	3.8905646462493926	0.16792698567717648	0.1076	4.62783612089842	0.13322917064243495	-0.01275	4.1195100819215495	-0.10603217000905467	0.0702	3.683639323771383	-0.13094652977406884	0.1076
441	15.757221458046768	3.858462517997465	-0.11638190545741935	0.0301	3.8394077771009623	-0.01875012096320845	0.0301	3.331137860962358	-0.09736360003905109	0.129	2.8216652445625208	-0.3362477650378556	0.023	2.6537048302810287	-0.14732290340851162	0.2179	2.704118409417732	-0.16484844930398976	0.1804	2.7661083530661874	-0.41775936726880714	-0.0119	3.8417005675584104	-0.13423040202687947	0.0301	3.2234571946678154	-0.26536575128626555	0.129	2.6963212959640463	-0.6103465870157659	0.023	2.587017478241328	-0.4025309220843836	0.2179	2.555650890691558	-0.47828794278255704	0.1804	2.6327423597504054	-0.7346229814544838	-0.0119	4.746155420916295	0.2665387459480013	0.0008	5.056508328499145	0.5892641503681487	0.0655	4.795598081996842	0.49248502219517676	0.1076	4.695479500567786	0.16699292326160137	-0.01275	4.217219227915983	0.08606701042807313	0.0702	3.9073738067548938	0.14248853974710796	0.1076	4.59149481064811	0.1695246046194089	-0.01275	4.103231805823471	-0.07778321023875989	0.0702	3.669665947803881	-0.1075700028172086	0.1076
442	15.79295211894937	3.874116614379798	-0.14253064961136386	0.0301	3.8670133633494745	-0.0772277051049766	0.0301	3.3436838633621635	-0.10501315647812329	0.129	2.8330238612537575	-0.3299491299231555	0.023	2.6924947372154286	-0.12581749282238122	0.2179	2.744179500556705	-0.15469726854902285	0.1804	2.7719085237245227	-0.4028462439950003	-0.0119	3.855123243625187	-0.14561095069951024	0.0301	3.2401691659906713	-0.2749936298823784	0.129	2.7000674051672027	-0.6150655592703445	0.023	2.581322815296578	-0.39718419964850193	0.2179	2.5574695302182238	-0.47336213506318753	0.1804	2.6350325067055422	-0.7311582066950733	-0.0119	4.743390521027931	0.26755899161224755	0.0008	5.053818145871124	0.5938616237890336	0.0655	4.800454959946478	0.48605197027361974	0.1076	4.716793775641816	0.12736864449526067	-0.01275	4.230685315652857	0.029696970425000954	0.0702	3.9285857547419383	0.1037013627015451	0.1076	4.566100983410237	0.2007410256807142	-0.01275	4.095726406147415	-0.05010517962783799	0.0702	3.6642279960774586	-0.08417214060513141	0.1076
